<?xml version="1.0" encoding="iso-8859-1"?>
<!-- Generator: Adobe Illustrator 19.0.0, SVG Export Plug-In . SVG Version: 6.00 Build 0)  -->
<svg version="1.1" id="Capa_1" xmlns="http://www.w3.org/2000/svg" xmlns:xlink="http://www.w3.org/1999/xlink" x="0px" y="0px"
	 viewBox="0 0 512 512" style="enable-background:new 0 0 512 512;" xml:space="preserve">
<path style="fill:#E6E6E6;" d="M102.4,503.467V51.2l0,0h358.4l0,0v426.667c0,14.14-11.46,25.6-25.6,25.6H102.4L102.4,503.467z"/>
<circle style="fill:#FBB03B;" cx="358.4" cy="179.2" r="59.733"/>
<path style="fill:#29ABE2;" d="M145.067,307.2h102.4v102.4h-102.4V307.2z"/>
<path style="fill:#DA4836;" d="M411.785,152.508c-10.103-20.233-30.771-33.024-53.385-33.041V179.2L411.785,152.508z"/>
<g>
	<path style="fill:#0071BC;" d="M358.4,119.467c-32.99,0-59.733,26.743-59.742,59.725c0,15.846,6.289,31.044,17.502,42.249
		l42.24-42.24V119.467z"/>
	<path style="fill:#0071BC;" d="M435.2,503.467c-14.14,0-25.6-11.46-25.6-25.6l0,0V460.8H51.2v17.067c0,14.14,11.46,25.6,25.6,25.6
		l0,0H435.2z"/>
</g>
<path d="M213.333,42.667C213.333,19.106,194.227,0,170.667,0S128,19.106,128,42.667h-25.6c-4.71,0-8.533,3.823-8.533,8.533v401.067
	H51.2c-4.71,0-8.533,3.823-8.533,8.533v17.067C42.667,496.717,57.95,512,76.8,512h358.4c18.85,0,34.133-15.283,34.133-34.133V51.2
	c0-4.71-3.823-8.533-8.533-8.533H213.333z M170.667,17.067c14.14,0,25.6,11.46,25.6,25.6h-51.2
	C145.067,28.527,156.527,17.067,170.667,17.067z M76.8,494.933c-9.429,0-17.067-7.637-17.067-17.067v-8.533h341.333v8.533
	c-0.009,5.99,1.57,11.887,4.582,17.067H76.8z M452.267,477.867c0,9.429-7.637,17.067-17.067,17.067
	c-9.429,0-17.067-7.637-17.067-17.067V460.8c0-4.71-3.823-8.533-8.533-8.533H110.933V59.733h85.333v46.933
	c0,7.066-5.734,12.8-12.8,12.8s-12.8-5.734-12.8-12.8l0,0V76.8H153.6v29.867c0,16.495,13.372,29.867,29.867,29.867
	s29.867-13.372,29.867-29.867V59.733h238.933V477.867z"/>
<path d="M281.6,332.8h145.067v17.067H281.6V332.8z"/>
<path d="M281.6,366.933h145.067V384H281.6V366.933z"/>
<path d="M281.6,401.067h110.933v17.067H281.6V401.067z"/>
<path d="M341.333,298.667h85.333v17.067h-85.333V298.667z"/>
<path d="M358.4,247.467c37.7,0,68.267-30.566,68.267-68.267S396.1,110.933,358.4,110.933S290.133,141.5,290.133,179.2
	C290.176,216.883,320.717,247.424,358.4,247.467z M358.4,230.4c-10.624,0-20.983-3.328-29.619-9.515l34.671-34.671l43.913-21.956
	c8.252,27.042-6.98,55.663-34.031,63.915C368.495,229.649,363.46,230.4,358.4,230.4z M399.667,149.026l-32.734,16.367v-36.625
	C380.066,131.004,391.808,138.266,399.667,149.026z M349.867,128.768v46.933l-33.152,33.152
	c-16.41-22.938-11.119-54.835,11.819-71.245C334.874,133.069,342.17,130.048,349.867,128.768z"/>
<path d="M136.533,179.2H153.6v68.267h-17.067V179.2z"/>
<path d="M170.667,196.267h17.067v51.2h-17.067V196.267z"/>
<path d="M204.8,162.133h17.067v85.333H204.8V162.133z"/>
<path d="M238.933,187.733H256v59.733h-17.067V187.733z"/>
<path d="M247.467,298.667h-102.4c-4.71,0-8.533,3.823-8.533,8.533v102.4c0,4.71,3.823,8.533,8.533,8.533h102.4
	c4.71,0,8.533-3.823,8.533-8.533V307.2C256,302.49,252.177,298.667,247.467,298.667z M238.933,401.067H153.6v-85.333h85.333V401.067
	z"/>
<path d="M307.2,298.667h17.067v17.067H307.2V298.667z"/>
<g>
</g>
<g>
</g>
<g>
</g>
<g>
</g>
<g>
</g>
<g>
</g>
<g>
</g>
<g>
</g>
<g>
</g>
<g>
</g>
<g>
</g>
<g>
</g>
<g>
</g>
<g>
</g>
<g>
</g>
</svg>
